<svg version="1.1" id="Layer_1" xmlns="http://www.w3.org/2000/svg" xmlns:xlink="http://www.w3.org/1999/xlink" x="0px" y="0px"
	  viewBox="0 0 40 40" enable-background="new 0 0 40 40" xml:space="preserve">
<g>
	<path d="M6.72,34C6.323,34,6,33.678,6,33.281v-5.811c0-0.396,0.323-0.721,0.72-0.721h5.81c0.397,0,0.72,0.324,0.72,0.721v5.811
		c0,0.396-0.323,0.719-0.72,0.719H6.72z M7.439,32.561h4.371v-4.371H7.439V32.561z"/>
	<path d="M17.095,34c-0.396,0-0.72-0.322-0.72-0.719v-5.811c0-0.396,0.323-0.721,0.72-0.721h5.811c0.396,0,0.72,0.324,0.72,0.721
		v5.811c0,0.396-0.323,0.719-0.72,0.719H17.095z M17.815,32.561h4.371v-4.371h-4.371V32.561z"/>
	<path d="M27.471,34c-0.397,0-0.721-0.322-0.721-0.719v-5.811c0-0.396,0.323-0.721,0.721-0.721h5.81c0.396,0,0.72,0.324,0.72,0.721
		v5.811C34,33.678,33.677,34,33.28,34H27.471z M28.189,32.561h4.371v-4.371h-4.371V32.561z"/>
	<path d="M6.72,23.625c-0.396,0-0.72-0.322-0.72-0.719v-5.811c0-0.397,0.323-0.72,0.72-0.72h5.81c0.397,0,0.72,0.323,0.72,0.72
		v5.811c0,0.396-0.323,0.719-0.72,0.719H6.72z M7.439,22.186h4.371v-4.371H7.439V22.186z"/>
	<path d="M17.095,23.625c-0.396,0-0.72-0.322-0.72-0.719v-5.811c0-0.397,0.323-0.72,0.72-0.72h5.811c0.396,0,0.72,0.323,0.72,0.72
		v5.811c0,0.396-0.323,0.719-0.72,0.719H17.095z M17.815,22.186h4.371v-4.371h-4.371V22.186z"/>
	<path d="M27.471,23.625c-0.397,0-0.721-0.322-0.721-0.719v-5.811c0-0.397,0.323-0.72,0.721-0.72h5.81c0.396,0,0.72,0.323,0.72,0.72
		v5.811c0,0.396-0.323,0.719-0.72,0.719H27.471z M28.189,22.186h4.371v-4.371h-4.371V22.186z"/>
	<path d="M6.72,13.25C6.323,13.25,6,12.927,6,12.531v-5.81C6,6.324,6.323,6,6.72,6h5.81c0.397,0,0.72,0.323,0.72,0.72v5.81
		c0,0.396-0.323,0.719-0.72,0.719H6.72z M7.439,11.811h4.371V7.439H7.439V11.811z"/>
	<path d="M17.095,13.25c-0.396,0-0.72-0.322-0.72-0.719v-5.81c0-0.397,0.323-0.72,0.72-0.72h5.811c0.396,0,0.72,0.323,0.72,0.72
		v5.81c0,0.396-0.323,0.719-0.72,0.719H17.095z M17.815,11.811h4.371V7.439h-4.371V11.811z"/>
	<path d="M27.471,13.25c-0.397,0-0.721-0.322-0.721-0.719v-5.81c0-0.397,0.323-0.72,0.721-0.72h5.81C33.677,6,34,6.324,34,6.721
		v5.81c0,0.396-0.323,0.719-0.72,0.719H27.471z M28.189,11.811h4.371V7.439h-4.371V11.811z"/>
</g>
</svg>
